<svg xmlns="http://www.w3.org/2000/svg" version="1.1" xmlns:xlink="http://www.w3.org/1999/xlink" xmlns:svgjs="http://svgjs.dev/svgjs" width="100%" height="100%" viewBox="0 0 1000 600"><rect width="1000" height="600" x="0" y="0" fill="#000000"/><g><circle r="166.66666666666666" cx="222.22222391764322" cy="244.4444359673398" fill="#000000" transform="matrix(2.2499999313354513,0,0,2.2499999313354517,0,-249.99999847412175)"/><path d="M231.58048321534287 315.5886801635587L202.26059769984087 317.89142916294975L202.26059769984087 209.3676885288588L175.27023733488562 316.7400546632542L157.9192913859858 316.7400546632542L128.8136150797295 208.96604626152313L128.8136150797295 315.5886801635587L105.49158742310644 316.7400546632542L105.49158742310644 173.48764598020796L146.94106941214488 172.33627148051244L170.85217239419353 261.7953924917382L193.79933393463665 175.62973807266468L231.58048321534287 173.30021292211796L231.58048321534287 315.5886801635587ZM297.9050096280355 319.4444459299808Q273.02996520438126 319.4444459299808 262.9085800675231 296.8721505057176Q252.78719493066484 274.3266312326102 252.78719493066484 241.3651891599317L252.78719493066484 241.3651891599317Q252.78719493066484 223.61260094369626 257.41946908060265 207.22559643640201Q262.0249670793846 190.83859192910776 272.3605614254885 180.15490761797963Q282.66937962043676 169.4444471556958 298.4673088023054 169.4444471556958L298.4673088023054 169.4444471556958Q310.62368142699756 169.4444471556958 319.78112512225016 176.9685456304502Q328.93856881750287 184.49264410520456 333.83860447899775 196.5419121252739Q338.7654162916483 208.5911801453432 338.7654162916483 221.68471806048515L338.7654162916483 221.68471806048515L311.4001898105131 223.05030176942634Q311.4001898105131 214.37482879497648 308.50836548569646 203.28950221651272Q305.6165411608798 192.20417563804895 296.94106818642996 192.20417563804895L296.94106818642996 192.20417563804895Q287.86395294464444 192.20417563804895 284.4098294455579 206.6632972621321Q280.92892979531564 221.12241888621529 280.92892979531564 241.3651891599317L280.92892979531564 241.3651891599317Q280.92892979531564 266.42766664167584 284.7846955617378 281.55619204465177Q288.64046132816 296.6847174476277 299.61868330200093 296.6847174476277L299.61868330200093 296.6847174476277Q307.33021483484526 296.6847174476277 310.62368142699756 287.5272737523751Q313.89037186799413 278.3698300571224 314.85431330959966 265.27629214198043L314.85431330959966 265.27629214198043L338.95284934973824 267.57904114137136Q338.95284934973824 281.44908744002896 334.32057519980054 293.31092240200826Q329.7150772010185 305.17275736398767 320.45052890114295 312.2952135714064Q311.18598060126743 319.4444459299808 297.9050096280355 319.4444459299808L297.9050096280355 319.4444459299808Z " fill="#ffffff" transform="matrix(2.2499999313354513,0,0,2.2499999313354517,0,-249.99999847412175)"/><path d="MNaN 244.44444783528658 " fill="#ffffff" transform="matrix(2.2499999313354513,0,0,2.2499999313354517,0,-249.99999847412175)"/></g></svg>